<svg xmlns="http://www.w3.org/2000/svg" xmlns:xlink="http://www.w3.org/1999/xlink" id="Capa_1" width="512" height="512" x="0" style="enable-background:new 0 0 438.53 438.529" y="0" version="1.1" viewBox="0 0 438.53 438.529" xml:space="preserve"><g><g><rect width="353.458" height="72.803" x="42.532" y="191.573" fill="#933EC5"/><path fill="#933EC5" d="M42.529,284.648v18.843c0,16.173,5.474,29.93,16.418,41.251c10.944,11.32,24.128,16.987,39.543,16.987h151.039v76.8 l74.227-76.8h16.282c15.414,0,28.603-5.66,39.547-16.987C390.529,333.421,396,319.664,396,303.491v-18.843H42.529z"/><rect width="353.458" height="72.802" x="42.532" y="97.927" fill="#933EC5"/><path fill="#933EC5" d="M395.991,57.956c0-15.988-5.469-29.643-16.413-40.968S355.448,0,340.031,0H98.493C83.078,0,69.894,5.662,58.95,16.988 S42.532,41.971,42.532,57.956v19.126h353.458V57.956z"/></g></g></svg>